<?xml version="1.0" encoding="utf-8"?>
<!-- Generator: Adobe Illustrator 18.1.1, SVG Export Plug-In . SVG Version: 6.00 Build 0)  -->
<svg version="1.1" id="Layer_1" xmlns="http://www.w3.org/2000/svg" xmlns:xlink="http://www.w3.org/1999/xlink" x="0px" y="0px"
	 viewBox="0 0 100 100" enable-background="new 0 0 100 100" xml:space="preserve">
<g>
	
		<rect x="67.8" y="44.3" transform="matrix(0.7071 -0.7071 0.7071 0.7071 -26.4656 74.2027)" fill="#FFFFFF" width="17.1" height="49.4"/>
	
		<rect x="35.2" y="19.4" transform="matrix(0.7071 -0.7071 0.7071 0.7071 -0.931 53.6268)" fill="none" stroke="#FFFFFF" stroke-miterlimit="10" width="58.1" height="17.1"/>
	
		<rect x="69.5" y="35.3" transform="matrix(0.7071 -0.7071 0.7071 0.7071 -6.0106 67.1318)" fill="#FFFFFF" width="17.1" height="11.1"/>
	
		<rect x="18.2" y="0.5" transform="matrix(0.7071 -0.7071 0.7071 0.7071 -5.9249 24.6188)" fill="#FFFFFF" width="17.1" height="38"/>
	
		<rect x="-1" y="60.4" transform="matrix(0.7071 -0.7071 0.7071 0.7071 -42.0422 36.4048)" fill="#FFFFFF" width="47.8" height="17.1"/>
	
		<rect x="49" y="61.3" transform="matrix(-0.7071 0.7071 -0.7071 -0.7071 147.7964 89.1184)" fill="#FFFFFF" width="13" height="27.8"/>
	
		<rect x="42.5" y="5.7" transform="matrix(-0.7071 0.7071 -0.7071 -0.7071 98.4986 -16.7846)" fill="#FFFFFF" width="20.4" height="12.6"/>
	
		<rect x="8" y="39" transform="matrix(-0.7071 0.7071 -0.7071 -0.7071 63.4343 65.3088)" fill="#FFFFFF" width="20.4" height="13.6"/>
</g>
</svg>
