<?xml version="1.0" encoding="utf-8"?>
<!-- Generator: Adobe Illustrator 18.1.1, SVG Export Plug-In . SVG Version: 6.00 Build 0)  -->
<svg version="1.1" id="Layer_1" xmlns="http://www.w3.org/2000/svg" xmlns:xlink="http://www.w3.org/1999/xlink" x="0px" y="0px"
	 viewBox="0 0 100 100" enable-background="new 0 0 100 100" xml:space="preserve">
<g>
	<rect x="67.9" y="47.8" transform="matrix(0.7071 -0.7071 0.7071 0.7071 -28.9243 75.3524)" width="17.1" height="49.6"/>
	
		<rect x="35.3" y="22.8" transform="matrix(0.7071 -0.7071 0.7071 0.7071 -3.3367 54.7338)" fill="none" stroke="#000000" stroke-miterlimit="10" width="58.2" height="17.1"/>
	<rect x="69.6" y="38.7" transform="matrix(0.7071 -0.7071 0.7071 0.7071 -8.4268 68.2668)" width="17.1" height="11.1"/>
	<rect x="18.3" y="3.9" transform="matrix(0.7071 -0.7071 0.7071 0.7071 -8.341 25.6656)" width="17.1" height="38.1"/>
	<rect x="-1" y="63.9" transform="matrix(0.7071 -0.7071 0.7071 0.7071 -44.5333 37.476)" width="47.9" height="17.1"/>
	<rect x="49.1" y="64.8" transform="matrix(-0.7071 0.7071 -0.7071 -0.7071 150.507 95.1065)" width="13" height="27.8"/>
	<rect x="42.6" y="9.1" transform="matrix(-0.7071 0.7071 -0.7071 -0.7071 101.1068 -11.0163)" width="20.4" height="12.7"/>
	<rect x="8" y="42.5" transform="matrix(-0.7071 0.7071 -0.7071 -0.7071 65.9697 71.2476)" width="20.4" height="13.6"/>
</g>
</svg>
